<?xml version="1.0" encoding="UTF-8" standalone="no"?>
<!-- Created with Inkscape (http://www.inkscape.org/) -->

<svg
   width="1080"
   height="1080"
   viewBox="0 0 285.74999 285.75"
   version="1.1"
   id="svg1"
   xml:space="preserve"
   inkscape:version="1.3.2 (091e20e, 2023-11-25, custom)"
   sodipodi:docname="Logo vectorized.svg"
   xmlns:inkscape="http://www.inkscape.org/namespaces/inkscape"
   xmlns:sodipodi="http://sodipodi.sourceforge.net/DTD/sodipodi-0.dtd"
   xmlns="http://www.w3.org/2000/svg"
   xmlns:svg="http://www.w3.org/2000/svg"><sodipodi:namedview
     id="namedview1"
     pagecolor="#000000"
     bordercolor="#000000"
     borderopacity="0.25"
     inkscape:showpageshadow="2"
     inkscape:pageopacity="0.0"
     inkscape:pagecheckerboard="0"
     inkscape:deskcolor="#d1d1d1"
     inkscape:document-units="mm"
     showgrid="true"
     inkscape:zoom="0.70710678"
     inkscape:cx="405.17218"
     inkscape:cy="535.27983"
     inkscape:window-width="1920"
     inkscape:window-height="991"
     inkscape:window-x="-9"
     inkscape:window-y="-9"
     inkscape:window-maximized="1"
     inkscape:current-layer="layer1"><inkscape:grid
       id="grid1"
       units="mm"
       originx="540"
       originy="540"
       spacingx="0.99999998"
       spacingy="0.99999998"
       empcolor="#0099e5"
       empopacity="0.30196078"
       color="#0099e5"
       opacity="0.14901961"
       empspacing="5"
       dotted="false"
       gridanglex="30"
       gridanglez="30"
       visible="true" /></sodipodi:namedview><defs
     id="defs1" /><g
     inkscape:label="Capa 1"
     inkscape:groupmode="layer"
     id="layer1"><circle
       style="fill:#f9f9f9;stroke-width:0.264583"
       id="path2"
       cx="142.76642"
       cy="142.76642"
       r="126" /><path
       style="display:inline;fill:#000000"
       d="m 126.138,231.23456 c -3.38432,-1.19052 -8.81321,-3.48529 -12.0642,-5.09949 -5.63438,-2.79761 -14.544488,-8.26829 -15.203628,-9.3348 -0.455001,-0.73621 3.743388,-13.3767 4.442918,-13.3767 0.32685,0 1.26695,-2.15981 2.08912,-4.79958 l 1.49484,-4.79958 -1.08628,-1.5965 c -0.92659,-1.36178 -1.3823,-1.59699 -3.09967,-1.59986 -2.791935,-0.005 -8.940662,-1.64694 -12.092034,-3.22969 -6.250874,-3.13945 -11.744901,-8.20638 -14.274528,-13.16486 -1.336722,-2.62019 -0.657674,-3.20079 2.09883,-1.79452 2.980532,1.52055 8.349393,3.29423 11.139567,3.6801 2.215624,0.30642 1.946992,0.0962 -4.953948,-3.87725 -10.823099,-6.23172 -14.778059,-9.7463 -17.844504,-15.85755 -2.016723,-4.01921 -3.228194,-9.70399 -2.271809,-10.66038 0.471244,-0.47124 1.073101,-0.0582 2.812103,1.9297 2.87031,3.2812 7.424378,6.68166 12.048063,8.99614 5.858782,2.93273 6.446898,2.83387 2.197754,-0.36943 -5.08766,-3.83542 -11.983745,-10.74647 -15.057394,-15.09006 -3.064107,-4.33011 -4.839897,-9.72445 -5.215295,-15.84259 -0.209365,-3.41218 -0.120299,-4.57795 0.373058,-4.88286 0.415032,-0.2565 0.882368,-0.0608 1.29959,0.5442 3.986867,5.78132 8.659915,11.50358 12.035672,14.73798 3.705295,3.55014 8.310181,7.12802 9.174059,7.12802 0.180238,0 -0.799717,-1.16298 -2.177677,-2.58439 -6.458577,-6.66225 -12.4808,-14.97872 -15.695077,-21.67432 -3.242796,-6.75501 -3.883046,-9.71375 -3.858263,-17.82993 0.01872,-6.130579 0.152509,-7.212808 1.211403,-9.799131 1.110299,-2.711881 2.493039,-4.322487 3.148349,-3.667176 0.155258,0.155257 0.623087,2.251854 1.03962,4.659104 1.997511,11.544113 8.729022,24.957263 16.895866,33.666573 l 2.077217,2.21519 -1.776639,-3.19972 C 78.282112,112.48112 74.094608,102.63746 72.428278,95.002608 c -1.352972,-6.199094 -1.348788,-15.232329 0.0091,-19.587061 1.02468,-3.286206 3.391571,-6.31095 4.434163,-5.666593 0.292747,0.180927 0.533157,1.70038 0.534246,3.376562 0.0058,8.916599 3.878102,22.934237 8.933052,32.337354 2.064196,3.83978 8.105321,13.29115 8.495434,13.29115 0.122917,0 -1.109891,-2.78742 -2.739573,-6.19428 -5.508311,-11.51513 -7.275514,-19.262856 -3.106488,-13.619374 1.944597,2.632344 5.71843,6.120474 10.122563,9.356224 5.296645,3.89148 5.459975,4.25381 5.922365,13.13779 0.58309,11.20323 3.14312,22.97841 6.40547,29.46286 2.73378,5.43381 4.29118,7.18992 8.05384,9.08138 4.79121,2.40851 7.45018,4.3004 10.48426,7.45972 4.48763,4.67286 7.4534,12.3389 7.47486,19.32134 0.007,2.20203 -2.01318,11.78654 -3.74359,17.76307 -0.18306,0.63226 0.33424,1.13542 1.99871,1.94408 1.23513,0.60007 2.24569,1.39288 2.24569,1.76178 0,0.36891 -0.58074,2.68937 -1.29054,5.15658 -1.22263,4.24979 -1.24486,4.51924 -0.42245,5.12059 0.47744,0.34912 1.08284,0.70635 1.34533,0.79384 0.26248,0.0875 -0.47507,3.30751 -1.63901,7.1556 -1.56261,5.16609 -2.31746,6.98963 -2.88532,6.97022 -0.42298,-0.0145 -3.53804,-1.00035 -6.92236,-2.19088 z m 7.98405,-17.59649 c 0.45185,-1.96291 0.66781,-3.71205 0.47993,-3.88697 -0.18789,-0.17493 -3.22136,-1.5849 -6.74106,-3.13328 -7.29318,-3.2084 -12.375,-5.71252 -15.15742,-7.46899 -1.0553,-0.66618 -2.00867,-1.1213 -2.1186,-1.01137 -0.35815,0.35815 -2.32937,7.25925 -2.12296,7.43232 3.16406,2.65295 21.74607,11.52548 24.33397,11.61898 0.27753,0.01 0.87429,-1.58779 1.32614,-3.55069 z m -4.5382,-0.61533 c -0.48891,-0.58911 -0.48891,-0.8877 0,-1.4768 0.33705,-0.40612 0.90304,-0.7384 1.25776,-0.7384 0.94408,0 1.45375,2.00021 0.64091,2.51525 -0.92846,0.5883 -1.19656,0.54593 -1.89867,-0.30005 z m -5.08674,-1.55884 c -0.62359,-0.6236 -0.32534,-2.0289 0.49762,-2.3447 1.06692,-0.40942 2.2565,0.78016 1.84708,1.84708 -0.3158,0.82296 -1.7211,1.12121 -2.3447,0.49762 z m -14.62348,4.04381 c 1.02507,-1.23514 0.41597,-2.48497 -1.21103,-2.48497 -1.01715,0 -1.51529,0.26987 -1.63377,0.88511 -0.19545,1.01488 0.72196,2.31461 1.63377,2.31461 0.33981,0 0.88478,-0.32164 1.21103,-0.71475 z m 19.71022,-13.52383 c 0,-0.48913 0.57557,-3.41118 1.27903,-6.49346 2.04133,-8.94416 1.24074,-14.21873 -3.15512,-20.78702 -2.41049,-3.60175 -6.63609,-7.71135 -10.70826,-10.4143 -2.70596,-1.79612 -6.49772,-3.48065 -6.90897,-3.0694 -0.13978,0.13978 0.47108,1.43278 1.35746,2.87334 1.3296,2.16088 1.63184,3.18237 1.72726,5.83772 0.0636,1.77019 -0.008,2.77549 -0.15818,2.234 -0.1506,-0.5415 -1.69337,-2.96277 -3.42837,-5.38062 -4.40912,-6.14443 -5.62418,-10.03674 -6.08068,-19.47876 -0.40032,-8.27995 -1.2948,-11.10906 -4.041901,-12.78391 -1.83618,-1.11948 -3.850043,-1.29336 -4.734617,-0.40878 -0.425445,0.42544 -0.596728,3.90305 -0.612198,12.42968 -0.01396,7.69387 -0.242695,12.87309 -0.6533,14.79256 l -0.63182,2.95359 -0.577362,-2.60862 c -0.359365,-1.62367 -0.577362,-7.40694 -0.577362,-15.31689 0,-12.05708 0.0516,-12.77386 1.006921,-13.98836 1.223888,-1.55592 3.891945,-2.37781 5.873824,-1.80941 1.20694,0.34614 1.497055,0.25706 1.749105,-0.53707 0.4296,-1.35355 -0.65414,-4.29456 -1.810576,-4.91347 -0.743183,-0.39774 -1.26578,-0.33499 -2.175768,0.26126 -0.658709,0.4316 -1.197652,1.04326 -1.197652,1.35923 0,0.31597 -1.273735,1.75026 -2.830523,3.18731 l -2.830523,2.61282 -0.140611,16.86113 -0.140612,16.86113 1.429195,2.21519 c 1.550526,2.40325 16.47562,20.39937 20.16493,24.31411 1.2483,1.32458 3.49838,3.19809 5.00018,4.16336 3.17813,2.04271 12.88871,6.49019 13.43433,6.15298 0.20469,-0.12651 0.37217,-0.63021 0.37217,-1.11934 z m 18.4631,30.85251 c -0.11663,-0.33843 -0.96959,-3.1628 -1.89547,-6.27637 -0.92588,-3.11358 -1.8339,-6.02231 -2.01784,-6.46384 -0.2478,-0.59487 0.0559,-0.93886 1.17253,-1.32812 0.82882,-0.28893 1.50695,-0.68008 1.50695,-0.86922 0,-0.18914 -0.66456,-2.41851 -1.4768,-4.95414 -0.81223,-2.53564 -1.47679,-4.78498 -1.47679,-4.99854 0,-0.21356 0.99684,-0.87259 2.21519,-1.46451 1.21836,-0.59192 2.21519,-1.41816 2.21519,-1.83608 0,-0.41793 -0.77531,-3.81716 -1.72292,-7.55385 -1.16038,-4.57569 -1.72014,-7.90589 -1.71438,-10.19943 0.0288,-11.48601 5.69881,-20.49441 16.48232,-26.18691 4.07284,-2.15001 5.19137,-2.99982 6.47924,-4.92265 3.3464,-4.99628 4.78587,-8.42586 6.53143,-15.56143 1.8261,-7.46478 2.06898,-9.16814 2.46441,-17.28302 0.25242,-5.1801 0.64087,-8.48182 1.1348,-9.64531 0.53179,-1.2527 2.33878,-3.01476 6.19065,-6.03673 4.29855,-3.37241 8.47038,-7.476242 10.29688,-10.129049 0.0808,-0.117324 0.37259,0.0124 0.64847,0.28828 0.77393,0.773935 -1.64946,7.879709 -5.09491,14.939109 -1.65178,3.38432 -3.09895,6.37483 -3.21595,6.64558 -0.41025,0.94937 3.21495,-3.96798 5.08076,-6.89171 3.50377,-5.49044 7.56134,-14.244709 9.35468,-20.182858 1.99593,-6.60899 3.77951,-16.139113 3.61719,-19.327543 -0.15791,-3.101846 0.79257,-3.732652 2.52604,-1.676456 4.34157,5.149841 4.35628,18.421495 0.035,31.581227 -1.89985,5.78569 -6.65202,15.86881 -10.33998,21.93932 -1.08594,1.78749 -1.77631,3.1772 -1.53417,3.08825 0.84281,-0.30961 6.20794,-7.07971 8.71054,-10.99158 5.20346,-8.13366 8.98433,-17.539693 9.97015,-24.803744 0.58044,-4.27695 1.09385,-5.042361 2.51782,-3.75368 2.37116,2.145868 3.68063,12.829244 2.48839,20.301594 -1.5063,9.44065 -8.03929,20.49033 -18.34206,31.0231 -1.92004,1.96291 -3.25792,3.56892 -2.97306,3.56892 0.67242,0 7.14393,-4.94634 9.89698,-7.56451 2.99343,-2.84677 7.42605,-8.35862 9.66463,-12.0177 1.04018,-1.70023 2.13257,-3.01193 2.42754,-2.91489 0.76483,0.25162 0.92861,4.81441 0.31481,8.77042 -1.20834,7.78797 -3.65512,12.03 -11.32469,19.63386 -3.14048,3.11357 -7.08084,6.647 -8.75634,7.85206 -1.67551,1.20505 -2.93798,2.2994 -2.8055,2.43188 0.13248,0.13248 2.61699,-0.96026 5.52113,-2.42831 4.40023,-2.22433 6.01866,-3.38831 9.71065,-6.98396 2.43671,-2.37312 4.59652,-4.31539 4.79958,-4.31615 0.61952,-0.002 0.41248,3.56372 -0.38455,6.62374 -2.03359,7.80748 -6.85104,12.97684 -17.99731,19.31199 -3.90106,2.21723 -7.53515,4.35866 -8.07575,4.75872 -2.33165,1.7255 6.86933,-0.7943 11.67563,-3.19751 1.54907,-0.77455 3.06834,-1.40828 3.37615,-1.40828 1.53341,0 -1.80259,6.04656 -5.25306,9.52125 -4.94783,4.98256 -13.16813,8.88638 -20.20458,9.59514 -2.85759,0.28784 -3.39342,0.50914 -4.37015,1.80486 l -1.11323,1.4768 1.53485,4.79958 c 0.84416,2.63977 1.80069,4.79958 2.12562,4.79958 0.32492,0 1.53496,2.86089 2.68898,6.35752 2.45086,7.42609 2.65964,6.74134 -3.23945,10.62465 -5.53603,3.64431 -14.65029,8.10029 -22.04223,10.77651 -6.68187,2.41914 -7.67,2.62335 -8.00402,1.65414 z m 7.3808,-17.97149 c 5.82348,-2.27346 15.79882,-7.30595 18.38633,-9.27576 0.2711,-0.20639 -2.00353,-7.58114 -2.33636,-7.57493 -0.16362,0.003 -1.95889,0.99692 -3.98948,2.20859 -2.03059,1.21167 -7.42608,3.8038 -11.98997,5.7603 l -8.29798,3.55726 0.28795,1.98732 c 0.15837,1.09302 0.52766,2.8287 0.82064,3.85706 0.61341,2.15308 0.19371,2.18372 7.11887,-0.51984 z m -5.18928,-1.86687 c -0.52317,-0.63038 -0.49085,-0.90558 0.18586,-1.58228 0.75857,-0.75858 0.87878,-0.75957 1.62488,-0.0135 0.89472,0.89472 0.59439,2.35885 -0.48385,2.35885 -0.38147,0 -0.97857,-0.34339 -1.32689,-0.7631 z m 5.22386,-2.03175 c -0.17927,-0.46718 0.0116,-1.15431 0.4396,-1.58228 0.68047,-0.68047 0.8325,-0.68047 1.51297,0 0.92414,0.92414 0.45797,2.40807 -0.75649,2.40807 -0.48355,0 -1.02179,-0.3716 -1.19608,-0.82579 z m 19.32989,4.82377 c 0.36212,-0.22953 0.58363,-0.94608 0.49226,-1.59232 -0.22861,-1.61681 -2.63689,-1.95788 -3.11814,-0.44159 -0.55869,1.76027 1.0688,3.02087 2.62588,2.03391 z m -13.29072,-16.4302 7.05828,-3.45117 5.08319,-5.96478 c 12.12003,-14.22205 16.83879,-19.85726 17.97931,-21.47113 l 1.2176,-1.72293 0.15637,-15.75247 c 0.10284,-10.35901 -0.0269,-16.37298 -0.37885,-17.56475 -0.33311,-1.12789 -1.2644,-2.38979 -2.46607,-3.34153 -1.06196,-0.84109 -2.38923,-2.27095 -2.94949,-3.17748 -1.34988,-2.18414 -2.7557,-2.51806 -4.26153,-1.01223 -0.83802,0.83803 -1.17639,1.72841 -1.17639,3.09557 v 1.91917 l 2.49388,-0.23963 c 2.91891,-0.28047 4.65112,0.4632 5.67049,2.43443 0.9029,1.74603 0.91528,24.44749 0.0154,28.22401 l -0.5865,2.46132 -0.69726,-2.46132 c -0.47772,-1.68637 -0.7819,-6.41358 -0.9661,-15.01408 l -0.26884,-12.55275 -1.74917,-0.14701 c -2.17189,-0.18254 -4.00963,1.15643 -5.50183,4.0086 -0.88847,1.69821 -1.12361,3.21594 -1.38465,8.9373 -0.42273,9.26491 -1.71738,13.53346 -6.06147,19.98499 -1.74064,2.58507 -3.28792,5.127 -3.43838,5.64872 -0.15047,0.52172 -0.22391,-0.63084 -0.16319,-2.56124 0.094,-2.98958 0.34565,-3.88828 1.6975,-6.06296 0.87291,-1.40421 1.58711,-2.64637 1.58711,-2.76034 0,-0.11396 -1.21206,0.32882 -2.69346,0.98396 -8.15711,3.60746 -16.19817,12.04651 -18.48541,19.40032 -1.03268,3.32023 -1.25535,8.65017 -0.50683,12.1317 0.23284,1.08299 0.80497,3.77891 1.2714,5.99094 0.69381,3.29034 0.99344,3.97331 1.64735,3.75491 0.4396,-0.14684 3.97551,-1.82 7.85756,-3.71814 z m -25.27207,-45.44919 c -8.62879,-2.07772 -12.51413,-4.09191 -17.54322,-9.09453 -2.96527,-2.94966 -4.17694,-4.61622 -5.73374,-7.88629 -2.55753,-5.37211 -3.27864,-8.50358 -3.27864,-14.2377 0,-5.78426 0.72895,-8.92247 3.30136,-14.21274 3.3631,-6.91635 9.41976,-12.415243 16.45262,-14.937505 2.90609,-1.042238 3.07086,-1.18774 3.20956,-2.834265 0.10487,-1.244919 0.45935,-1.873011 1.2538,-2.221555 0.76411,-0.335233 1.10759,-0.907711 1.10759,-1.845993 0,-1.330306 -0.063,-1.360064 -2.88079,-1.360064 -3.10714,0 -6.06189,-1.432482 -6.38186,-3.093968 -0.15079,-0.782967 0.96395,-0.844151 15.37987,-0.844151 16.76772,0 16.90612,0.02406 14.2878,2.483845 -1.01585,0.954346 -1.90588,1.215466 -4.67652,1.372021 -3.36697,0.190251 -3.42188,0.215301 -3.42188,1.561232 0,1.048527 0.28732,1.43999 1.23067,1.676755 1.03873,0.260706 1.23066,0.596478 1.23066,2.153013 0,1.781668 0.0875,1.874769 2.58439,2.748413 7.09566,2.482767 13.61521,8.222562 16.98353,14.952262 2.76241,5.51912 3.77503,10.33066 3.43648,16.32856 -0.74395,13.17963 -9.03043,23.7534 -22.01987,28.09793 -3.11553,1.04203 -12.08971,1.78035 -14.52181,1.19473 z m 12.61109,-8.27757 c 5.31894,-1.64462 9.70468,-5.01243 12.83544,-9.85633 5.18452,-8.02146 5.23529,-18.97464 0.12452,-26.86803 -2.36466,-3.65214 -1.94937,-4.57572 0.74157,-1.64921 2.50332,2.72248 4.64815,6.77411 5.5198,10.42701 1.10628,4.63619 1.40753,4.86135 1.1861,0.88651 -0.55058,-9.88336 -8.95962,-19.586928 -19.72738,-22.764304 -4.00681,-1.182341 -12.66857,-1.173774 -16.737,0.01655 -10.16755,2.974788 -18.00592,11.555134 -19.47401,21.317414 -0.66697,4.43512 -0.0258,5.86558 0.80458,1.79493 0.3315,-1.62513 1.34494,-4.48116 2.2521,-6.34675 1.86785,-3.84124 6.68067,-9.43147 7.45405,-8.65809 0.32002,0.32003 0.0576,0.99543 -0.7679,1.97651 -6.70222,7.96513 -7.91696,19.85723 -2.92113,28.5972 3.23509,5.65962 9.27749,10.12245 15.6059,11.52627 3.92529,0.87075 9.54943,0.6992 13.10336,-0.39968 z M 135.873,140.70153 c -5.25802,-1.5185 -9.30796,-4.97793 -11.85071,-10.1228 -1.45649,-2.94699 -1.57628,-3.56426 -1.57628,-8.12237 0,-4.51287 0.13211,-5.21185 1.55125,-8.20717 1.96863,-4.15513 4.80286,-6.98936 8.95799,-8.95799 3.02624,-1.43378 3.66559,-1.55125 8.44296,-1.55125 4.72274,0 5.42366,0.12496 8.12236,1.44806 3.36122,1.6479 7.55098,5.58035 8.98621,8.43434 4.78673,9.51846 0.62868,21.80886 -8.8116,26.04541 -3.68209,1.65242 -10.03481,2.12755 -13.82218,1.03377 z m 10.2144,-5.17338 c 1.48255,-0.52107 3.33232,-1.46253 4.1106,-2.09212 1.59893,-1.29347 4.78231,-5.69437 4.39742,-6.07926 -0.13864,-0.13864 -0.86421,0.63124 -1.61238,1.71085 -1.49527,2.15767 -4.86402,4.4967 -7.841,5.44426 -2.69758,0.85863 -7.56435,0.36827 -10.39987,-1.04786 -1.28224,-0.64038 -3.20984,-2.16305 -4.28355,-3.38371 -1.36511,-1.55194 -1.68921,-1.77526 -1.07769,-0.74259 3.57707,6.04062 10.17588,8.48575 16.70647,6.19043 z m -12.07317,-7.60711 c 0,-0.10231 -0.33228,-0.98127 -0.73839,-1.95325 -1.50292,-3.59698 -0.83306,-7.58937 1.89176,-11.27495 1.23568,-1.67137 1.80022,-1.72002 1.80022,-0.15511 0,3.09752 2.1999,5.20082 5.4397,5.20082 2.26829,0 4.89786,-2.74442 4.89786,-5.11178 0,-4.1356 -4.75824,-6.36231 -9.62438,-4.50391 -4.8625,1.857 -7.08355,5.17984 -7.10181,10.62475 -0.009,2.68643 0.21282,3.56914 1.32984,5.29185 1.12882,1.74089 2.1052,2.61356 2.1052,1.88158 z m 18.27632,-14.45886 c -0.61025,-1.13205 -2.40956,-2.7395 -4.24677,-3.79393 -1.3765,-0.79002 -1.36172,-0.75266 0.21767,0.55018 0.93195,0.76876 2.2423,2.00693 2.91189,2.75148 1.4007,1.55752 1.78202,1.72554 1.11721,0.49227 z M 140.29061,90.876928 c 0.66767,-0.178928 1.1076,-0.677456 1.1076,-1.25513 0,-0.78463 -0.28995,-0.930349 -1.59987,-0.80405 -1.00647,0.09704 -1.6117,0.428126 -1.63179,0.892653 -0.0646,1.493492 0.25305,1.667937 2.12406,1.166527 z m 4.06118,-4.120116 v -1.476794 h -3.44585 c -3.28176,0 -3.44585,0.0547 -3.44585,1.148617 0,1.655414 0.31271,1.804971 3.77403,1.804971 h 3.11767 z m -32.73451,-8.159487 c -2.12809,-1.109617 -3.176,-2.170312 -4.27869,-4.330888 -2.11052,-4.135266 -0.74239,-10.192114 2.93594,-12.997713 l 1.75728,-1.340344 h 29.12026 29.12026 l 1.81222,1.382246 c 2.49995,1.9068 3.77219,4.593824 3.77219,7.966985 0,4.592446 -1.67589,7.565468 -5.16878,9.169411 -1.83623,0.843202 -3.8452,0.90472 -29.78202,0.911974 -24.27411,0.0068 -28.00072,-0.09012 -29.28866,-0.761671 z m 33.12721,-3.964164 c 1.6553,-1.066454 3.04948,-3.625721 3.04948,-5.597882 0,-5.36832 -6.53568,-8.407584 -10.53283,-4.898042 -2.96464,2.602986 -3.428,6.237007 -1.1625,9.11713 2.05057,2.606868 5.8093,3.206291 8.64585,1.378794 z m -6.05374,-0.754333 c -1.74947,-0.962092 -2.6852,-2.562157 -2.69651,-4.610951 -0.0281,-5.081693 5.60181,-7.325552 9.13279,-3.639998 1.15999,1.210765 1.43996,1.937888 1.43996,3.739811 0,1.949571 -0.21887,2.419544 -1.70434,3.659663 -1.82363,1.522435 -4.32445,1.867449 -6.1719,0.851475 z m 5.20665,-1.852094 c 1.76934,-1.769346 1.89261,-3.88826 0.33133,-5.695247 -2.50788,-2.902547 -7.26091,-0.801607 -7.26091,3.209477 0,1.488717 2.59708,3.924698 4.18425,3.924698 0.78756,0 1.87787,-0.571473 2.74533,-1.438928 z m -4.75965,-1.760793 c -0.74697,-1.140022 -0.74697,-1.321302 0,-2.461324 0.95869,-1.463148 2.74526,-1.614245 3.90709,-0.330437 1.05888,1.170055 1.03151,2.196823 -0.0855,3.207731 -1.29998,1.176471 -2.89167,1.003219 -3.82155,-0.41597 z m -18.72641,3.732321 c -4.46975,-2.725518 -3.94045,-7.31673 1.05014,-9.10908 1.73034,-0.621444 1.80883,-0.711384 0.64738,-0.741865 -3.05267,-0.08011 -5.81248,2.474464 -5.81248,5.380227 0,1.640259 1.70192,4.355988 3.07609,4.908459 1.97866,0.795505 2.61892,0.525727 1.03887,-0.437741 z m 44.82069,-1.022887 c 3.17301,-3.128569 0.55211,-8.949421 -3.97305,-8.823881 -0.77047,0.02138 -1.06857,0.159051 -0.66245,0.305947 2.65077,0.958803 3.95413,1.894392 4.6335,3.326047 1.09022,2.297464 0.29208,4.33108 -2.34375,5.971738 -1.89457,1.179263 -1.93591,1.248834 -0.56682,0.953922 0.81224,-0.174961 2.12289,-0.955159 2.91257,-1.733773 z M 123.9228,69.527544 c 0,-0.977231 -0.27935,-1.262794 -1.35652,-1.386696 -0.88463,-0.101754 -1.4595,0.112301 -1.65253,0.615331 -0.52846,1.377156 0.19766,2.325406 1.65253,2.15806 1.07717,-0.123901 1.35652,-0.409464 1.35652,-1.386695 z m 38.54348,0.203056 c 0.2811,-1.967387 -2.34035,-2.744633 -3.0469,-0.903392 -0.49136,1.280462 0.24951,2.238377 1.60924,2.080693 0.87193,-0.101116 1.33849,-0.483175 1.43766,-1.177301 z"
       id="path1" /></g></svg>
